<svg width="23" height="19" viewBox="0 0 23 19" fill="none" xmlns="http://www.w3.org/2000/svg">
<path d="M1.7992 0.486328L21.4933 0.486328C21.7835 0.486328 22.0618 0.59271 22.267 0.78207C22.4722 0.97143 22.5874 1.22826 22.5874 1.49605V17.6517C22.5874 17.9195 22.4722 18.1763 22.267 18.3657C22.0618 18.555 21.7835 18.6614 21.4933 18.6614H1.7992C1.50902 18.6614 1.23072 18.555 1.02554 18.3657C0.820351 18.1763 0.705078 17.9195 0.705078 17.6517L0.705078 1.49605C0.705078 1.22826 0.820351 0.97143 1.02554 0.78207C1.23072 0.59271 1.50902 0.486328 1.7992 0.486328ZM20.3992 4.76555L11.725 11.9346L2.89331 4.74333L2.89331 16.6419H20.3992V4.76555ZM3.45241 2.50578L11.713 9.23258L19.8543 2.50578L3.45241 2.50578Z" fill="white"/>
</svg>
