<svg width="24" height="24" viewBox="0 0 24 24" fill="none" xmlns="http://www.w3.org/2000/svg">
<path d="M12.702 2.19512L19.702 4.82012C20.0833 4.96305 20.4119 5.21898 20.6438 5.55368C20.8758 5.88838 21.0001 6.2859 21 6.69312V12.0561C21 13.7275 20.5346 15.366 19.6559 16.7878C18.7772 18.2096 17.52 19.3586 16.025 20.1061L12.671 21.7831C12.4627 21.8873 12.2329 21.9416 12 21.9416C11.7671 21.9416 11.5373 21.8873 11.329 21.7831L7.975 20.1061C6.48004 19.3586 5.22277 18.2096 4.34407 16.7878C3.46537 15.366 2.99996 13.7275 3 12.0561V6.69312C2.99995 6.2859 3.1242 5.88838 3.35615 5.55368C3.5881 5.21898 3.91669 4.96305 4.298 4.82012L11.298 2.19512C11.7506 2.02545 12.2494 2.02545 12.702 2.19512ZM12 4.06812L5 6.69312V12.0561C5.00023 13.356 5.36239 14.6301 6.04592 15.7358C6.72944 16.8414 7.70732 17.7349 8.87 18.3161L12 19.8831L15.13 18.3181C16.293 17.7367 17.2711 16.8429 17.9546 15.7369C18.6382 14.6309 19.0001 13.3563 19 12.0561V6.69312L12 4.06812ZM12 8.00012C12.4269 7.99995 12.8426 8.13635 13.1864 8.38938C13.5302 8.64242 13.784 8.99881 13.9107 9.40643C14.0374 9.81406 14.0304 10.2515 13.8906 10.6549C13.7509 11.0582 13.4857 11.4063 13.134 11.6481L13 11.7331V15.0001C12.9997 15.255 12.9021 15.5002 12.7272 15.6855C12.5522 15.8708 12.313 15.9824 12.0586 15.9973C11.8042 16.0122 11.5536 15.9294 11.3582 15.7659C11.1627 15.6023 11.0371 15.3702 11.007 15.1171L11 15.0001V11.7331C10.6182 11.5132 10.3198 11.1734 10.151 10.7664C9.98218 10.3595 9.95247 9.90817 10.0665 9.4826C10.1805 9.05704 10.4318 8.68102 10.7814 8.41295C11.1311 8.14488 11.5594 7.99976 12 8.00012Z" fill="white"/>
</svg>
