<svg width="21" height="21" viewBox="0 0 21 21" fill="none" xmlns="http://www.w3.org/2000/svg">
<path d="M18.3028 8.55437H19.3969C19.6871 8.55437 19.9653 8.66075 20.1705 8.85011C20.3757 9.03948 20.491 9.2963 20.491 9.5641V19.6614C20.491 19.9292 20.3757 20.186 20.1705 20.3753C19.9653 20.5647 19.6871 20.6711 19.3969 20.6711H1.89099C1.60081 20.6711 1.32252 20.5647 1.11733 20.3753C0.912148 20.186 0.796875 19.9292 0.796875 19.6614L0.796875 9.5641C0.796875 9.2963 0.912148 9.03948 1.11733 8.85011C1.32252 8.66075 1.60081 8.55437 1.89099 8.55437H2.98511V7.54465C2.98511 6.61645 3.18321 5.69735 3.5681 4.83981C3.953 3.98227 4.51714 3.20309 5.22833 2.54676C5.93952 1.89042 6.78382 1.36979 7.71303 1.01459C8.64224 0.659384 9.63816 0.476563 10.6439 0.476563C11.6497 0.476563 12.6456 0.659384 13.5748 1.01459C14.5041 1.36979 15.3484 1.89042 16.0595 2.54676C16.7707 3.20309 17.3349 3.98227 17.7198 4.83981C18.1047 5.69735 18.3028 6.61645 18.3028 7.54465V8.55437ZM2.98511 10.5738L2.98511 18.6516H18.3028V10.5738L2.98511 10.5738ZM9.54982 12.5933H11.7381L11.7381 16.6322H9.54982L9.54982 12.5933ZM16.1145 8.55437V7.54465C16.1145 6.20567 15.5382 4.92153 14.5122 3.97473C13.4863 3.02792 12.0948 2.49602 10.6439 2.49602C9.19304 2.49602 7.80158 3.02792 6.77564 3.97473C5.74971 4.92153 5.17335 6.20567 5.17335 7.54465L5.17335 8.55437H16.1145Z" fill="white"/>
</svg>
